<svg width="377" height="348" viewBox="0 0 377 348" fill="none" xmlns="http://www.w3.org/2000/svg">
<path d="M249.608 143.579C295.831 143.579 332.81 179.474 332.81 224.342C332.81 240.136 328.188 255.032 320.052 267.416L377 323.053L351.3 348L293.613 292.901C280.855 300.619 265.693 305.106 249.608 305.106C203.384 305.106 166.405 269.211 166.405 224.342C166.405 179.474 203.384 143.579 249.608 143.579ZM249.608 179.474C237.348 179.474 225.591 184.201 216.923 192.616C208.254 201.03 203.384 212.443 203.384 224.342C203.384 236.242 208.254 247.655 216.923 256.069C225.591 264.484 237.348 269.211 249.608 269.211C261.867 269.211 273.624 264.484 282.293 256.069C290.961 247.655 295.831 236.242 295.831 224.342C295.831 212.443 290.961 201.03 282.293 192.616C273.624 184.201 261.867 179.474 249.608 179.474ZM147.916 0C167.53 0 186.342 7.56352 200.212 21.0267C214.082 34.4898 221.873 52.7498 221.873 71.7896C221.873 88.1217 216.142 103.198 206.712 115.402C190.811 121.145 176.574 130.298 164.741 141.784L147.916 143.579C128.301 143.579 109.489 136.016 95.6196 122.552C81.7498 109.089 73.9578 90.8294 73.9578 71.7896C73.9578 52.7498 81.7498 34.4898 95.6196 21.0267C109.489 7.56352 128.301 0 147.916 0ZM0 287.158V251.264C0 213.215 61.2001 181.987 138.671 179.474C132.754 193.473 129.426 208.549 129.426 224.342C129.426 247.495 136.452 269.211 147.916 287.158H0Z" fill="#3E3D42"/>
</svg>
