<svg width="401" height="360" viewBox="0 0 401 360" fill="none" xmlns="http://www.w3.org/2000/svg">
<path d="M401 162C401 152.452 397.159 143.295 390.323 136.544C383.486 129.793 374.214 126 364.545 126H249.349L266.847 43.74C267.212 41.94 267.394 39.96 267.394 37.98C267.394 30.6 264.295 23.76 259.374 18.9L240.053 0L120.118 118.44C113.374 125.1 109.364 134.1 109.364 144V324C109.364 333.548 113.204 342.705 120.041 349.456C126.877 356.207 136.15 360 145.818 360H309.864C324.992 360 337.934 351 343.402 338.04L398.448 211.14C400.089 207 401 202.68 401 198V162ZM0 360H72.9091V144H0V360Z" fill="#3E3D42"/>
</svg>
