<svg width="401" height="362" viewBox="0 0 401 362" fill="none" xmlns="http://www.w3.org/2000/svg">
<path d="M364.545 217.2V36.2H36.4545V217.2H364.545ZM364.545 0C374.214 0 383.486 3.81392 390.323 10.6027C397.159 17.3915 401 26.5992 401 36.2V253.4C401 263.001 397.159 272.208 390.323 278.997C383.486 285.786 374.214 289.6 364.545 289.6H236.955L273.409 343.9V362H127.591V343.9L164.045 289.6H36.4545C26.7862 289.6 17.5138 285.786 10.6773 278.997C3.84074 272.208 0 263.001 0 253.4V36.2C0 16.109 16.2223 0 36.4545 0H364.545ZM54.6818 54.3H255.182V144.8H54.6818V54.3ZM273.409 54.3H346.318V90.5H273.409V54.3ZM346.318 108.6V199.1H273.409V108.6H346.318ZM54.6818 162.9H145.818V199.1H54.6818V162.9ZM164.045 162.9H255.182V199.1H164.045V162.9Z" fill="#3E3D42"/>
</svg>
