<svg width="372" height="257" viewBox="0 0 372 257" fill="none" xmlns="http://www.w3.org/2000/svg">
<path d="M148.8 183.571L245.334 128.5L148.8 73.4286V183.571ZM363.816 39.835C366.234 48.4629 367.908 60.0279 369.024 74.7136C370.326 89.3993 370.884 102.066 370.884 113.08L372 128.5C372 168.702 369.024 198.257 363.816 217.165C359.166 233.686 348.378 244.334 331.638 248.923C322.896 251.309 306.9 252.961 282.348 254.063C258.168 255.348 236.034 255.899 215.574 255.899L186 257C108.066 257 59.52 254.063 40.362 248.923C23.622 244.334 12.834 233.686 8.184 217.165C5.766 208.537 4.092 196.972 2.976 182.286C1.674 167.601 1.116 154.934 1.116 143.92L0 128.5C0 88.2979 2.976 58.7429 8.184 39.835C12.834 23.3136 23.622 12.6664 40.362 8.07714C49.104 5.69072 65.1 4.03857 89.652 2.93714C113.832 1.65214 135.966 1.10143 156.426 1.10143L186 0C263.934 0 312.48 2.93714 331.638 8.07714C348.378 12.6664 359.166 23.3136 363.816 39.835V39.835Z" fill="#3E3D42"/>
</svg>
