<svg width="362" height="360" viewBox="0 0 362 360" fill="none" xmlns="http://www.w3.org/2000/svg">
<path d="M287.79 277.02C283.084 262.62 269.509 252 253.4 252H235.3V198C235.3 193.226 233.393 188.648 229.999 185.272C226.604 181.896 222 180 217.2 180H108.6V144H144.8C149.6 144 154.204 142.104 157.599 138.728C160.993 135.352 162.9 130.774 162.9 126V90H199.1C208.701 90 217.908 86.2072 224.697 79.4558C231.486 72.7045 235.3 63.5478 235.3 54V46.62C256.956 55.3026 276.174 69.0745 291.309 86.757C306.444 104.44 317.045 125.506 322.204 148.153C327.364 170.8 326.928 194.353 320.935 216.796C314.941 239.239 303.569 259.903 287.79 277.02ZM162.9 322.74C91.405 313.92 36.2 253.44 36.2 180C36.2 168.84 37.648 158.04 40.001 147.78L126.7 234V252C126.7 261.548 130.514 270.705 137.303 277.456C144.092 284.207 153.299 288 162.9 288V322.74ZM181 0C157.231 0 133.694 4.65584 111.734 13.7017C89.7744 22.7475 69.8211 36.0062 53.0137 52.7208C19.0696 86.4773 0 132.261 0 180C0 227.739 19.0696 273.523 53.0137 307.279C69.8211 323.994 89.7744 337.252 111.734 346.298C133.694 355.344 157.231 360 181 360C229.004 360 275.042 341.036 308.986 307.279C342.93 273.523 362 227.739 362 180C362 156.362 357.318 132.956 348.222 111.117C339.126 89.2784 325.794 69.4353 308.986 52.7208C292.179 36.0062 272.226 22.7475 250.266 13.7017C228.306 4.65584 204.769 0 181 0Z" fill="#3E3D42"/>
</svg>
