<svg width="75" height="65" viewBox="0 0 75 65" fill="none" xmlns="http://www.w3.org/2000/svg">
<rect x="4" y="19.429" width="23" height="1.53952" rx="0.769762" transform="rotate(-44.7483 4 19.429)" fill="#3E3D42" fill-opacity="0.99"/>
<rect x="53.79" y="60.4291" width="23" height="1.53952" rx="0.769762" transform="rotate(-44.7483 53.79 60.4291)" fill="#3E3D42" fill-opacity="0.99"/>
<rect x="5" y="44.2372" width="23" height="1.53952" rx="0.769762" transform="rotate(45 5 44.2372)" fill="#3E3D42" fill-opacity="0.99"/>
<rect x="54.8787" y="3.99997" width="23" height="1.53952" rx="0.769762" transform="rotate(45 54.8787 3.99997)" fill="#3E3D42" fill-opacity="0.99"/>
<rect x="1.41416" y="32.157" width="43.8729" height="43.8729" transform="rotate(-44.4852 1.41416 32.157)" stroke="#3E3D42" stroke-opacity="0.99" stroke-width="2"/>
<rect x="11.4142" y="32.157" width="43.8729" height="43.8729" transform="rotate(-44.4852 11.4142 32.157)" stroke="#3E3D42" stroke-opacity="0.99" stroke-width="2"/>
<rect x="30" y="32" width="15" height="1" rx="0.5" fill="#3E3D42" fill-opacity="0.99"/>
<path d="M33.5469 27.7119L34.5771 20.4707H34.6943L37.6387 26.4082L40.5488 20.4707H40.666L41.7109 27.7119H40.9932L40.2852 22.5312L37.7266 27.7119H37.541L34.9482 22.4971L34.2451 27.7119H33.5469Z" fill="#3E3D42" fill-opacity="0.99"/>
<path d="M30.874 36.4512H31.6016V42.9941H34.3848V43.6924H30.874V36.4512Z" fill="#3E3D42" fill-opacity="0.99"/>
<path d="M38.8789 43.5947V36.3535H39.0352L43.8496 41.8955V36.3535H44.5625V43.5947H44.3965L39.6309 38.1211V43.5947H38.8789ZM43.1904 35.416L43.5371 35.8896C43.2995 36.0622 43.0993 36.1777 42.9365 36.2363C42.7738 36.2949 42.6029 36.3242 42.4238 36.3242C42.1895 36.3242 41.9469 36.2624 41.6963 36.1387C41.4814 36.0345 41.3447 35.9743 41.2861 35.958C41.208 35.9352 41.1217 35.9238 41.0273 35.9238C40.9167 35.9238 40.8092 35.945 40.7051 35.9873C40.6009 36.0264 40.4512 36.1191 40.2559 36.2656L39.9287 35.7578C40.2282 35.4421 40.5977 35.2842 41.0371 35.2842C41.2454 35.2842 41.4961 35.3493 41.7891 35.4795C42.069 35.6064 42.2887 35.6699 42.4482 35.6699C42.6305 35.6699 42.8779 35.5853 43.1904 35.416Z" fill="#3E3D42" fill-opacity="0.99"/>
</svg>
