<svg width="5601" height="1103" viewBox="0 0 5601 1103" fill="none" xmlns="http://www.w3.org/2000/svg">
<rect width="5601" height="1103" fill="white"/>
<path d="M897 487C897 477.452 893.159 468.295 886.323 461.544C879.486 454.793 870.214 451 860.545 451H745.349L762.847 368.74C763.212 366.94 763.394 364.96 763.394 362.98C763.394 355.6 760.295 348.76 755.374 343.9L736.053 325L616.118 443.44C609.374 450.1 605.364 459.1 605.364 469V649C605.364 658.548 609.204 667.705 616.041 674.456C622.877 681.207 632.15 685 641.818 685H805.864C820.992 685 833.934 676 839.402 663.04L894.448 536.14C896.089 532 897 527.68 897 523V487ZM496 685H568.909V469H496V685Z" fill="#FFC107"/>
<path d="M1510.8 552.571L1607.33 497.5L1510.8 442.429V552.571ZM1725.82 408.835C1728.23 417.463 1729.91 429.028 1731.02 443.714C1732.33 458.399 1732.88 471.066 1732.88 482.08L1734 497.5C1734 537.702 1731.02 567.257 1725.82 586.165C1721.17 602.686 1710.38 613.334 1693.64 617.923C1684.9 620.309 1668.9 621.961 1644.35 623.063C1620.17 624.348 1598.03 624.899 1577.57 624.899L1548 626C1470.07 626 1421.52 623.063 1402.36 617.923C1385.62 613.334 1374.83 602.686 1370.18 586.165C1367.77 577.537 1366.09 565.972 1364.98 551.286C1363.67 536.601 1363.12 523.934 1363.12 512.92L1362 497.5C1362 457.298 1364.98 427.743 1370.18 408.835C1374.83 392.314 1385.62 381.666 1402.36 377.077C1411.1 374.691 1427.1 373.039 1451.65 371.937C1475.83 370.652 1497.97 370.101 1518.43 370.101L1548 369C1625.93 369 1674.48 371.937 1693.64 377.077C1710.38 381.666 1721.17 392.314 1725.82 408.835V408.835Z" fill="#FFC107"/>
<path d="M2474.61 473.579C2520.83 473.579 2557.81 509.474 2557.81 554.342C2557.81 570.136 2553.19 585.032 2545.05 597.416L2602 653.053L2576.3 678L2518.61 622.901C2505.85 630.619 2490.69 635.106 2474.61 635.106C2428.38 635.106 2391.41 599.211 2391.41 554.342C2391.41 509.474 2428.38 473.579 2474.61 473.579ZM2474.61 509.474C2462.35 509.474 2450.59 514.201 2441.92 522.616C2433.25 531.03 2428.38 542.443 2428.38 554.342C2428.38 566.242 2433.25 577.655 2441.92 586.069C2450.59 594.484 2462.35 599.211 2474.61 599.211C2486.87 599.211 2498.62 594.484 2507.29 586.069C2515.96 577.655 2520.83 566.242 2520.83 554.342C2520.83 542.443 2515.96 531.03 2507.29 522.616C2498.62 514.201 2486.87 509.474 2474.61 509.474ZM2372.92 330C2392.53 330 2411.34 337.564 2425.21 351.027C2439.08 364.49 2446.87 382.75 2446.87 401.79C2446.87 418.122 2441.14 433.198 2431.71 445.402C2415.81 451.145 2401.57 460.298 2389.74 471.784L2372.92 473.579C2353.3 473.579 2334.49 466.016 2320.62 452.552C2306.75 439.089 2298.96 420.829 2298.96 401.79C2298.96 382.75 2306.75 364.49 2320.62 351.027C2334.49 337.564 2353.3 330 2372.92 330ZM2225 617.158V581.264C2225 543.215 2286.2 511.987 2363.67 509.474C2357.75 523.473 2354.43 538.549 2354.43 554.342C2354.43 577.495 2361.45 599.211 2372.92 617.158H2225Z" fill="#FFC107"/>
<path d="M3419.55 547.2V366.2H3091.45V547.2H3419.55ZM3419.55 330C3429.21 330 3438.49 333.814 3445.32 340.603C3452.16 347.392 3456 356.599 3456 366.2V583.4C3456 593.001 3452.16 602.208 3445.32 608.997C3438.49 615.786 3429.21 619.6 3419.55 619.6H3291.95L3328.41 673.9V692H3182.59V673.9L3219.05 619.6H3091.45C3081.79 619.6 3072.51 615.786 3065.68 608.997C3058.84 602.208 3055 593.001 3055 583.4V366.2C3055 346.109 3071.22 330 3091.45 330H3419.55ZM3109.68 384.3H3310.18V474.8H3109.68V384.3ZM3328.41 384.3H3401.32V420.5H3328.41V384.3ZM3401.32 438.6V529.1H3328.41V438.6H3401.32ZM3109.68 492.9H3200.82V529.1H3109.68V492.9ZM3219.05 492.9H3310.18V529.1H3219.05V492.9Z" fill="#FFC107"/>
<path d="M4217.79 595.02C4213.08 580.62 4199.51 570 4183.4 570H4165.3V516C4165.3 511.226 4163.39 506.648 4160 503.272C4156.6 499.896 4152 498 4147.2 498H4038.6V462H4074.8C4079.6 462 4084.2 460.104 4087.6 456.728C4090.99 453.352 4092.9 448.774 4092.9 444V408H4129.1C4138.7 408 4147.91 404.207 4154.7 397.456C4161.49 390.705 4165.3 381.548 4165.3 372V364.62C4186.96 373.303 4206.17 387.075 4221.31 404.757C4236.44 422.44 4247.04 443.506 4252.2 466.153C4257.36 488.8 4256.93 512.353 4250.93 534.796C4244.94 557.239 4233.57 577.903 4217.79 595.02ZM4092.9 640.74C4021.41 631.92 3966.2 571.44 3966.2 498C3966.2 486.84 3967.65 476.04 3970 465.78L4056.7 552V570C4056.7 579.548 4060.51 588.705 4067.3 595.456C4074.09 602.207 4083.3 606 4092.9 606V640.74ZM4111 318C4087.23 318 4063.69 322.656 4041.73 331.702C4019.77 340.748 3999.82 354.006 3983.01 370.721C3949.07 404.477 3930 450.261 3930 498C3930 545.739 3949.07 591.523 3983.01 625.279C3999.82 641.994 4019.77 655.252 4041.73 664.298C4063.69 673.344 4087.23 678 4111 678C4159 678 4205.04 659.036 4238.99 625.279C4272.93 591.523 4292 545.739 4292 498C4292 474.362 4287.32 450.956 4278.22 429.117C4269.13 407.278 4255.79 387.435 4238.99 370.721C4222.18 354.006 4202.23 340.748 4180.27 331.702C4158.31 322.656 4134.77 318 4111 318Z" fill="#FFC107"/>
<path d="M5059 477.125V413.25C5059 408.41 5057.05 403.768 5053.58 400.345C5050.11 396.923 5045.41 395 5040.5 395H4818.5C4813.59 395 4808.89 396.923 4805.42 400.345C4801.95 403.768 4800 408.41 4800 413.25V595.75C4800 600.59 4801.95 605.232 4805.42 608.655C4808.89 612.077 4813.59 614 4818.5 614H5040.5C5045.41 614 5050.11 612.077 5053.58 608.655C5057.05 605.232 5059 600.59 5059 595.75V531.875L5133 604.875V404.125L5059 477.125Z" fill="#FFC107"/>
<circle cx="697" cy="505" r="367" stroke="#FFC107" stroke-width="30"/>
<circle cx="1543" cy="505" r="367" stroke="#FFC107" stroke-width="30"/>
<circle cx="2399" cy="505" r="367" stroke="#FFC107" stroke-width="30"/>
<circle cx="3255" cy="505" r="367" stroke="#FFC107" stroke-width="30"/>
<circle cx="4111" cy="504" r="367" stroke="#FFC107" stroke-width="30"/>
<circle cx="4967" cy="504" r="367" stroke="#FFC107" stroke-width="30"/>
</svg>
