<svg width="6129" height="1103" viewBox="0 0 6129 1103" fill="none" xmlns="http://www.w3.org/2000/svg">
<rect width="6129" height="1103" fill="white"/>
<circle cx="2505" cy="498" r="367" fill="#FFC107" stroke="#FFC107" stroke-width="30"/>
<circle cx="3492" cy="498" r="367" fill="#FFC107" stroke="#FFC107" stroke-width="30"/>
<circle cx="4479" cy="497" r="367" fill="#FFC107" stroke="#FFC107" stroke-width="30"/>
<circle cx="5466" cy="498" r="367" fill="#FFC107" stroke="#FFC107" stroke-width="30"/>
<circle cx="1519" cy="498" r="367" fill="#FFC107" stroke="#FFC107" stroke-width="30"/>
<circle cx="532" cy="498" r="367" fill="#FFC107" stroke="#FFC107" stroke-width="30"/>
<path d="M732 480C732 470.452 728.159 461.295 721.323 454.544C714.486 447.793 705.214 444 695.545 444H580.349L597.847 361.74C598.212 359.94 598.394 357.96 598.394 355.98C598.394 348.6 595.295 341.76 590.374 336.9L571.053 318L451.118 436.44C444.374 443.1 440.364 452.1 440.364 462V642C440.364 651.548 444.204 660.705 451.041 667.456C457.877 674.207 467.15 678 476.818 678H640.864C655.992 678 668.934 669 674.402 656.04L729.448 529.14C731.089 525 732 520.68 732 516V480ZM331 678H403.909V462H331V678Z" fill="white"/>
<path d="M1486.8 545.571L1583.33 490.5L1486.8 435.429V545.571ZM1701.82 401.835C1704.23 410.463 1705.91 422.028 1707.02 436.714C1708.33 451.399 1708.88 464.066 1708.88 475.08L1710 490.5C1710 530.702 1707.02 560.257 1701.82 579.165C1697.17 595.686 1686.38 606.334 1669.64 610.923C1660.9 613.309 1644.9 614.961 1620.35 616.063C1596.17 617.348 1574.03 617.899 1553.57 617.899L1524 619C1446.07 619 1397.52 616.063 1378.36 610.923C1361.62 606.334 1350.83 595.686 1346.18 579.165C1343.77 570.537 1342.09 558.972 1340.98 544.286C1339.67 529.601 1339.12 516.934 1339.12 505.92L1338 490.5C1338 450.298 1340.98 420.743 1346.18 401.835C1350.83 385.314 1361.62 374.666 1378.36 370.077C1387.1 367.691 1403.1 366.039 1427.65 364.937C1451.83 363.652 1473.97 363.101 1494.43 363.101L1524 362C1601.93 362 1650.48 364.937 1669.64 370.077C1686.38 374.666 1697.17 385.314 1701.82 401.835V401.835Z" fill="#FCFCFC"/>
<path d="M2580.61 466.579C2626.83 466.579 2663.81 502.474 2663.81 547.342C2663.81 563.136 2659.19 578.032 2651.05 590.416L2708 646.053L2682.3 671L2624.61 615.901C2611.85 623.619 2596.69 628.106 2580.61 628.106C2534.38 628.106 2497.41 592.211 2497.41 547.342C2497.41 502.474 2534.38 466.579 2580.61 466.579ZM2580.61 502.474C2568.35 502.474 2556.59 507.201 2547.92 515.616C2539.25 524.03 2534.38 535.443 2534.38 547.342C2534.38 559.242 2539.25 570.655 2547.92 579.069C2556.59 587.484 2568.35 592.211 2580.61 592.211C2592.87 592.211 2604.62 587.484 2613.29 579.069C2621.96 570.655 2626.83 559.242 2626.83 547.342C2626.83 535.443 2621.96 524.03 2613.29 515.616C2604.62 507.201 2592.87 502.474 2580.61 502.474ZM2478.92 323C2498.53 323 2517.34 330.564 2531.21 344.027C2545.08 357.49 2552.87 375.75 2552.87 394.79C2552.87 411.122 2547.14 426.198 2537.71 438.402C2521.81 444.145 2507.57 453.298 2495.74 464.784L2478.92 466.579C2459.3 466.579 2440.49 459.016 2426.62 445.552C2412.75 432.089 2404.96 413.829 2404.96 394.79C2404.96 375.75 2412.75 357.49 2426.62 344.027C2440.49 330.564 2459.3 323 2478.92 323ZM2331 610.158V574.264C2331 536.215 2392.2 504.987 2469.67 502.474C2463.75 516.473 2460.43 531.549 2460.43 547.342C2460.43 570.495 2467.45 592.211 2478.92 610.158H2331Z" fill="white"/>
<path d="M3656.55 547.2V366.2H3328.45V547.2H3656.55ZM3656.55 330C3666.21 330 3675.49 333.814 3682.32 340.603C3689.16 347.392 3693 356.599 3693 366.2V583.4C3693 593.001 3689.16 602.208 3682.32 608.997C3675.49 615.786 3666.21 619.6 3656.55 619.6H3528.95L3565.41 673.9V692H3419.59V673.9L3456.05 619.6H3328.45C3318.79 619.6 3309.51 615.786 3302.68 608.997C3295.84 602.208 3292 593.001 3292 583.4V366.2C3292 346.109 3308.22 330 3328.45 330H3656.55ZM3346.68 384.3H3547.18V474.8H3346.68V384.3ZM3565.41 384.3H3638.32V420.5H3565.41V384.3ZM3638.32 438.6V529.1H3565.41V438.6H3638.32ZM3346.68 492.9H3437.82V529.1H3346.68V492.9ZM3456.05 492.9H3547.18V529.1H3456.05V492.9Z" fill="white"/>
<path d="M4585.79 588.02C4581.08 573.62 4567.51 563 4551.4 563H4533.3V509C4533.3 504.226 4531.39 499.648 4528 496.272C4524.6 492.896 4520 491 4515.2 491H4406.6V455H4442.8C4447.6 455 4452.2 453.104 4455.6 449.728C4458.99 446.352 4460.9 441.774 4460.9 437V401H4497.1C4506.7 401 4515.91 397.207 4522.7 390.456C4529.49 383.705 4533.3 374.548 4533.3 365V357.62C4554.96 366.303 4574.17 380.075 4589.31 397.757C4604.44 415.44 4615.04 436.506 4620.2 459.153C4625.36 481.8 4624.93 505.353 4618.93 527.796C4612.94 550.239 4601.57 570.903 4585.79 588.02ZM4460.9 633.74C4389.41 624.92 4334.2 564.44 4334.2 491C4334.2 479.84 4335.65 469.04 4338 458.78L4424.7 545V563C4424.7 572.548 4428.51 581.705 4435.3 588.456C4442.09 595.207 4451.3 599 4460.9 599V633.74ZM4479 311C4455.23 311 4431.69 315.656 4409.73 324.702C4387.77 333.748 4367.82 347.006 4351.01 363.721C4317.07 397.477 4298 443.261 4298 491C4298 538.739 4317.07 584.523 4351.01 618.279C4367.82 634.994 4387.77 648.252 4409.73 657.298C4431.69 666.344 4455.23 671 4479 671C4527 671 4573.04 652.036 4606.99 618.279C4640.93 584.523 4660 538.739 4660 491C4660 467.362 4655.32 443.956 4646.22 422.117C4637.13 400.278 4623.79 380.435 4606.99 363.721C4590.18 347.006 4570.23 333.748 4548.27 324.702C4526.31 315.656 4502.77 311 4479 311Z" fill="white"/>
<path d="M5558 471.125V407.25C5558 402.41 5556.05 397.768 5552.58 394.345C5549.11 390.923 5544.41 389 5539.5 389H5317.5C5312.59 389 5307.89 390.923 5304.42 394.345C5300.95 397.768 5299 402.41 5299 407.25V589.75C5299 594.59 5300.95 599.232 5304.42 602.655C5307.89 606.077 5312.59 608 5317.5 608H5539.5C5544.41 608 5549.11 606.077 5552.58 602.655C5556.05 599.232 5558 594.59 5558 589.75V525.875L5632 598.875V398.125L5558 471.125Z" fill="white"/>
</svg>
