<svg width="4583" height="1103" viewBox="0 0 4583 1103" fill="none" xmlns="http://www.w3.org/2000/svg">
<rect width="4583" height="1103" fill="white"/>
<path d="M898 480C898 470.452 894.159 461.295 887.323 454.544C880.486 447.793 871.214 444 861.545 444H746.349L763.847 361.74C764.212 359.94 764.394 357.96 764.394 355.98C764.394 348.6 761.295 341.76 756.374 336.9L737.053 318L617.118 436.44C610.374 443.1 606.364 452.1 606.364 462V642C606.364 651.548 610.204 660.705 617.041 667.456C623.877 674.207 633.15 678 642.818 678H806.864C821.992 678 834.934 669 840.402 656.04L895.448 529.14C897.089 525 898 520.68 898 516V480ZM497 678H569.909V462H497V678Z" fill="#FFC107"/>
<path d="M1319.8 559.571L1416.33 504.5L1319.8 449.429V559.571ZM1534.82 415.835C1537.23 424.463 1538.91 436.028 1540.02 450.714C1541.33 465.399 1541.88 478.066 1541.88 489.08L1543 504.5C1543 544.702 1540.02 574.257 1534.82 593.165C1530.17 609.686 1519.38 620.334 1502.64 624.923C1493.9 627.309 1477.9 628.961 1453.35 630.063C1429.17 631.348 1407.03 631.899 1386.57 631.899L1357 633C1279.07 633 1230.52 630.063 1211.36 624.923C1194.62 620.334 1183.83 609.686 1179.18 593.165C1176.77 584.537 1175.09 572.972 1173.98 558.286C1172.67 543.601 1172.12 530.934 1172.12 519.92L1171 504.5C1171 464.298 1173.98 434.743 1179.18 415.835C1183.83 399.314 1194.62 388.666 1211.36 384.077C1220.1 381.691 1236.1 380.039 1260.65 378.937C1284.83 377.652 1306.97 377.101 1327.43 377.101L1357 376C1434.93 376 1483.48 378.937 1502.64 384.077C1519.38 388.666 1530.17 399.314 1534.82 415.835V415.835Z" fill="#FFC107"/>
<path d="M2065.61 473.579C2111.83 473.579 2148.81 509.474 2148.81 554.342C2148.81 570.136 2144.19 585.032 2136.05 597.416L2193 653.053L2167.3 678L2109.61 622.901C2096.85 630.619 2081.69 635.106 2065.61 635.106C2019.38 635.106 1982.41 599.211 1982.41 554.342C1982.41 509.474 2019.38 473.579 2065.61 473.579ZM2065.61 509.474C2053.35 509.474 2041.59 514.201 2032.92 522.616C2024.25 531.03 2019.38 542.443 2019.38 554.342C2019.38 566.242 2024.25 577.655 2032.92 586.069C2041.59 594.484 2053.35 599.211 2065.61 599.211C2077.87 599.211 2089.62 594.484 2098.29 586.069C2106.96 577.655 2111.83 566.242 2111.83 554.342C2111.83 542.443 2106.96 531.03 2098.29 522.616C2089.62 514.201 2077.87 509.474 2065.61 509.474ZM1963.92 330C1983.53 330 2002.34 337.564 2016.21 351.027C2030.08 364.49 2037.87 382.75 2037.87 401.79C2037.87 418.122 2032.14 433.198 2022.71 445.402C2006.81 451.145 1992.57 460.298 1980.74 471.784L1963.92 473.579C1944.3 473.579 1925.49 466.016 1911.62 452.552C1897.75 439.089 1889.96 420.829 1889.96 401.79C1889.96 382.75 1897.75 364.49 1911.62 351.027C1925.49 337.564 1944.3 330 1963.92 330ZM1816 617.158V581.264C1816 543.215 1877.2 511.987 1954.67 509.474C1948.75 523.473 1945.43 538.549 1945.43 554.342C1945.43 577.495 1952.45 599.211 1963.92 617.158H1816Z" fill="#FFC107"/>
<path d="M2830.55 540.2V359.2H2502.45V540.2H2830.55ZM2830.55 323C2840.21 323 2849.49 326.814 2856.32 333.603C2863.16 340.392 2867 349.599 2867 359.2V576.4C2867 586.001 2863.16 595.208 2856.32 601.997C2849.49 608.786 2840.21 612.6 2830.55 612.6H2702.95L2739.41 666.9V685H2593.59V666.9L2630.05 612.6H2502.45C2492.79 612.6 2483.51 608.786 2476.68 601.997C2469.84 595.208 2466 586.001 2466 576.4V359.2C2466 339.109 2482.22 323 2502.45 323H2830.55ZM2520.68 377.3H2721.18V467.8H2520.68V377.3ZM2739.41 377.3H2812.32V413.5H2739.41V377.3ZM2812.32 431.6V522.1H2739.41V431.6H2812.32ZM2520.68 485.9H2611.82V522.1H2520.68V485.9ZM2630.05 485.9H2721.18V522.1H2630.05V485.9Z" fill="#FFC107"/>
<path d="M3427.79 601.02C3423.08 586.62 3409.51 576 3393.4 576H3375.3V522C3375.3 517.226 3373.39 512.648 3370 509.272C3366.6 505.896 3362 504 3357.2 504H3248.6V468H3284.8C3289.6 468 3294.2 466.104 3297.6 462.728C3300.99 459.352 3302.9 454.774 3302.9 450V414H3339.1C3348.7 414 3357.91 410.207 3364.7 403.456C3371.49 396.705 3375.3 387.548 3375.3 378V370.62C3396.96 379.303 3416.17 393.075 3431.31 410.757C3446.44 428.44 3457.04 449.506 3462.2 472.153C3467.36 494.8 3466.93 518.353 3460.93 540.796C3454.94 563.239 3443.57 583.903 3427.79 601.02ZM3302.9 646.74C3231.41 637.92 3176.2 577.44 3176.2 504C3176.2 492.84 3177.65 482.04 3180 471.78L3266.7 558V576C3266.7 585.548 3270.51 594.705 3277.3 601.456C3284.09 608.207 3293.3 612 3302.9 612V646.74ZM3321 324C3297.23 324 3273.69 328.656 3251.73 337.702C3229.77 346.748 3209.82 360.006 3193.01 376.721C3159.07 410.477 3140 456.261 3140 504C3140 551.739 3159.07 597.523 3193.01 631.279C3209.82 647.994 3229.77 661.252 3251.73 670.298C3273.69 679.344 3297.23 684 3321 684C3369 684 3415.04 665.036 3448.99 631.279C3482.93 597.523 3502 551.739 3502 504C3502 480.362 3497.32 456.956 3488.22 435.117C3479.13 413.278 3465.79 393.435 3448.99 376.721C3432.18 360.006 3412.23 346.748 3390.27 337.702C3368.31 328.656 3344.77 324 3321 324Z" fill="#FFC107"/>
<path d="M4034 477.125V413.25C4034 408.41 4032.05 403.768 4028.58 400.345C4025.11 396.923 4020.41 395 4015.5 395H3793.5C3788.59 395 3783.89 396.923 3780.42 400.345C3776.95 403.768 3775 408.41 3775 413.25V595.75C3775 600.59 3776.95 605.232 3780.42 608.655C3783.89 612.077 3788.59 614 3793.5 614H4015.5C4020.41 614 4025.11 612.077 4028.58 608.655C4032.05 605.232 4034 600.59 4034 595.75V531.875L4108 604.875V404.125L4034 477.125Z" fill="#FFC107"/>
</svg>
