<svg width="248" height="182" viewBox="0 0 248 182" fill="none" xmlns="http://www.w3.org/2000/svg">
<rect width="248" height="182" fill="white"/>
<rect x="50.8151" y="62.8173" width="50.6869" height="3.39277" rx="1" transform="rotate(-44.7483 50.8151 62.8173)" fill="#3E3D42" fill-opacity="0.99"/>
<rect x="160.541" y="153.172" width="50.6869" height="3.39277" rx="1" transform="rotate(-44.7483 160.541 153.172)" fill="#3E3D42" fill-opacity="0.99"/>
<rect x="53.0189" y="117.489" width="50.6869" height="3.39277" rx="1" transform="rotate(45 53.0189 117.489)" fill="#3E3D42" fill-opacity="0.99"/>
<rect x="162.94" y="28.8151" width="50.6869" height="3.39277" rx="1" transform="rotate(45 162.94 28.8151)" fill="#3E3D42" fill-opacity="0.99"/>
<rect x="43.4142" y="90.8515" width="99.0936" height="99.0936" transform="rotate(-44.4852 43.4142 90.8515)" stroke="#3E3D42" stroke-opacity="0.99" stroke-width="2"/>
<rect x="65.4519" y="90.8515" width="99.0936" height="99.0936" transform="rotate(-44.4852 65.4519 90.8515)" stroke="#3E3D42" stroke-opacity="0.99" stroke-width="2"/>
<rect x="108.113" y="90.5208" width="33.0566" height="2.20378" rx="1" fill="#3E3D42" fill-opacity="0.99"/>
<path d="M115.271 70.5837L116.302 63.3425H116.419L119.363 69.28L122.273 63.3425H122.391L123.436 70.5837H122.718L122.01 65.403L119.451 70.5837H119.266L116.673 65.3688L115.97 70.5837H115.271Z" fill="#3E3D42" fill-opacity="0.99"/>
<path d="M108.987 98.5834H109.715V105.126H112.498V105.825H108.987V98.5834Z" fill="#3E3D42" fill-opacity="0.99"/>
<path d="M126.622 105.727V98.4857H126.779L131.593 104.028V98.4857H132.306V105.727H132.14L127.374 100.253V105.727H126.622ZM130.934 97.5482L131.281 98.0219C131.043 98.1944 130.843 98.3099 130.68 98.3685C130.517 98.4271 130.346 98.4564 130.167 98.4564C129.933 98.4564 129.69 98.3946 129.44 98.2709C129.225 98.1667 129.088 98.1065 129.03 98.0902C128.952 98.0674 128.865 98.056 128.771 98.056C128.66 98.056 128.553 98.0772 128.449 98.1195C128.344 98.1586 128.195 98.2513 127.999 98.3978L127.672 97.89C127.972 97.5743 128.341 97.4164 128.781 97.4164C128.989 97.4164 129.24 97.4815 129.533 97.6117C129.813 97.7386 130.032 97.8021 130.192 97.8021C130.374 97.8021 130.621 97.7175 130.934 97.5482Z" fill="#3E3D42" fill-opacity="0.99"/>
</svg>
